<svg xmlns="http://www.w3.org/2000/svg" viewBox="0 0 220 160"><defs><linearGradient id="felt" x1="0" x2="1" y1="0" y2="1"><stop stop-color="#3d4655"/><stop offset="1" stop-color="#171e2b"/></linearGradient></defs><ellipse cx="110" cy="125" rx="70" ry="9" fill="#18283e" opacity=".12"/><path d="M110 36q3-17 8-18l6 4-8 18" fill="#253041"/><path d="M21 93C16 69 56 44 92 36c44-10 91 9 105 39 9 20-22 38-55 41l-63 5C46 123 26 112 21 93z" fill="url(#felt)" stroke="#172030" stroke-width="3"/><path d="M48 100q63 19 131-4l-6 20q-61 16-121 1z" fill="#111827"/><path d="M39 81q22-26 53-31" fill="none" stroke="#66717f" stroke-width="4" stroke-linecap="round" opacity=".65"/></svg>