<svg xmlns="http://www.w3.org/2000/svg" viewBox="0 0 780 410" role="img"><title>Schéma illustratif : oubli et révisions espacées</title><rect width="780" height="410" rx="18" fill="#fff"/><g font-family="sans-serif" fill="#333"><text x="35" y="35" font-size="23" font-weight="bold">Retrouver les connaissances avec des rappels</text><path d="M70 65V315H720" fill="none" stroke="#555" stroke-width="2"/><text x="75" y="60">Plus facile à retrouver</text><text x="75" y="338">Plus difficile</text><text x="570" y="338">Temps écoulé →</text><path d="M75 85 C110 180 170 240 250 275 S550 292 710 297" stroke="#999" stroke-width="4" fill="none"/><path d="M75 85Q115 190 160 205 L160 85 Q230 155 300 170 L300 85 Q415 125 480 135 L480 85 Q590 105 710 115" stroke="#b83a64" stroke-width="4" fill="none"/><g stroke="#b83a64" stroke-dasharray="4 4"><path d="M160 85V315 M300 85V315 M480 85V315"/></g><g font-size="14"><text x="125" y="360">Rappel 1</text><text x="265" y="360">Rappel 2</text><text x="445" y="360">Rappel 3</text><text x="540" y="90" fill="#b83a64">Avec rappels actifs</text><text x="545" y="275" fill="#777">Sans rappel</text><text x="35" y="395">Schéma pédagogique, sans pourcentages mesurés. Travaux d’Ebbinghaus (1885).</text></g></g></svg>